<?xml version="1.0" encoding="UTF-8" standalone="no"?>
<svg
   width="24.000061px"
   height="24px"
   viewBox="0 0 24.000061 24"
   version="1.1"
   id="svg192"
   sodipodi:docname="pencil.svg"
   inkscape:version="1.2.1 (9c6d41e410, 2022-07-14)"
   xmlns:inkscape="http://www.inkscape.org/namespaces/inkscape"
   xmlns:sodipodi="http://sodipodi.sourceforge.net/DTD/sodipodi-0.dtd"
   xmlns:xlink="http://www.w3.org/1999/xlink"
   xmlns="http://www.w3.org/2000/svg"
   xmlns:svg="http://www.w3.org/2000/svg">
  <sodipodi:namedview
     id="namedview194"
     pagecolor="#ffffff"
     bordercolor="#000000"
     borderopacity="0.25"
     inkscape:showpageshadow="2"
     inkscape:pageopacity="0.0"
     inkscape:pagecheckerboard="0"
     inkscape:deskcolor="#d1d1d1"
     showgrid="false"
     inkscape:zoom="33.916667"
     inkscape:cx="12.280098"
     inkscape:cy="14.034398"
     inkscape:window-width="1920"
     inkscape:window-height="1017"
     inkscape:window-x="-8"
     inkscape:window-y="-8"
     inkscape:window-maximized="1"
     inkscape:current-layer="g189" />
  <defs
     id="defs173">
    <linearGradient
       gradientUnits="userSpaceOnUse"
       x1="-0.55820805"
       y1="6.580684"
       x2="21.810816"
       y2="17.002674"
       id="gradient_1">
      <stop
         offset="0%"
         stop-color="#FFFFFF"
         stop-opacity="0.2"
         id="stop164" />
      <stop
         offset="100%"
         stop-color="#FFFFFF"
         stop-opacity="0"
         id="stop166" />
    </linearGradient>
    <path
       d="M6.10352e-05 0L24.0001 0L24.0001 24L6.10352e-05 24L6.10352e-05 0Z"
       id="path_1" />
    <clipPath
       id="mask_1">
      <use
         xlink:href="#path_1"
         id="use170" />
    </clipPath>
  </defs>
  <g
     id="design-pencil-ruler-grid-guide_108596">
    <path
       d="M6.10352e-05 0L24.0001 0L24.0001 24L6.10352e-05 24L6.10352e-05 0Z"
       id="Фон"
       fill="#000000"
       fill-opacity="0"
       fill-rule="evenodd"
       stroke="none" />
    <g
       id="g189"
       transform="translate(0 1.0195312)">
      <path
         d="M16.7469 11.0212L21.4142 6.39551C21.7921 6.01758 22.0001 5.51563 22.0001 4.98145C22.0001 4.44727 21.7921 3.94531 21.4142 3.56738L18.4142 0.567383C17.6583 -0.188477 16.3434 -0.189941 15.5846 0.568848L10.9604 5.23468L5.27901 10.9673L2.14516 14.1294C2.08559 14.1895 2.04262 14.2632 2.01918 14.3442L0.0191799 21.3442C-0.0306248 21.5186 0.0182033 21.7065 0.146621 21.835C0.241836 21.9302 0.369278 21.9814 0.500137 21.9814C0.546036 21.9814 0.592422 21.9751 0.637344 21.9624L7.63735 19.9624C7.7184 19.939 7.79213 19.896 7.85219 19.8364L11.0142 16.7026L16.7469 11.0212L16.7469 11.0212Z"
         id="Фигура"
         fill="#000000"
         stroke="none" />
      <path
         d="M5.63702 15.6372L4.94739 14.2575C4.86243 14.0881 4.68958 13.9811 4.50012 13.9811L3.6994 13.9811L13.4057 4.1875L15.2462 6.02802L5.63702 15.6372L5.63702 15.6372Z"
         id="path177"
         fill="#FF4928"
         stroke="none"
         style="fill:#0d6efd;fill-opacity:1" />
      <path
         d="M7.72377 17.0342L6.34407 16.3445L15.9533 6.73535L17.7938 8.57587L8.00014 18.2822L8.00014 17.4814C8.00014 17.292 7.8932 17.1191 7.72377 17.0342L7.72377 17.0342Z"
         id="path179"
         fill="#FF4928"
         stroke="none"
         style="fill:#0d6efd;fill-opacity:1" />
      <path
         d="M16.2931 1.27441C16.671 0.896484 17.3292 0.896484 17.7072 1.27441L20.7072 4.27441C20.8961 4.46338 21.0001 4.71436 21.0001 4.98145C21.0001 5.24854 20.8961 5.49951 20.7086 5.68701L18.504 7.87201L14.1096 3.4776L16.2931 1.27441L16.2931 1.27441Z"
         id="path181"
         fill="#FFFFFF"
         stroke="none" />
      <path
         d="M5.27951 16.9311C5.23117 16.9069 5.08004 16.7558 5.05587 16.7075L4.19406 14.9838L2.88009 14.9838L1.76724 18.8795L3.16189 20.2042L7.00314 19.1069L7.00314 17.7929L5.27951 16.9311L5.27951 16.9311Z"
         id="path183"
         fill="#F3F3F3"
         stroke="none" />
      <path
         d="M3.16188 20.2042L1.76723 18.8795L1.88246 18.476L1.88246 18.476L1.23115 20.7558L3.511 20.1045L3.511 20.1045L3.16188 20.2042Z"
         id="Многоугольник"
         fill="#313131"
         fill-rule="evenodd"
         stroke="none" />
      <path
         d="M7.00314 17.7929L5.27951 16.9311C5.23117 16.9069 5.20547 16.8571 5.16769 16.8193L1.23117 20.7558L7.00314 19.1069L7.00314 17.7929L7.00314 17.7929ZM19.2102 2.77682L16.3098 5.67721L18.507 7.87441L20.7116 5.68941C20.8991 5.50191 21.0031 5.25094 21.0031 4.98385C21.0031 4.71676 20.8991 4.46578 20.7102 4.27682L19.2102 2.77682L19.2102 2.77682ZM7.72677 17.0366L6.34707 16.3469L15.9563 6.73775L17.7968 8.57827L8.00314 18.2846L8.00314 17.4838C8.00314 17.2944 7.89621 17.1215 7.72677 17.0366L7.72677 17.0366Z"
         id="Group"
         fill="#010101"
         fill-opacity="0.1"
         stroke="none" />
      <path
         d="m 16.7469,11.0212 4.6673,-4.62569 c 0.3779,-0.37793 0.5859,-0.87988 0.5859,-1.41406 0,-0.53418 -0.208,-1.03614 -0.5859,-1.41407 l -3,-2.999997 c -0.7559,-0.75586 -2.0708,-0.757324 -2.8296,0.001465 L 10.9604,5.23468 5.27901,10.9673 2.14516,14.1294 c -0.05957,0.0601 -0.10254,0.1338 -0.12598,0.2148 l -2.0000001,7 c -0.0498047,0.1744 -9.766e-4,0.3623 0.1274411,0.4908 0.095215,0.0952 0.222657,0.1464 0.353516,0.1464 0.045899,0 0.092285,-0.0063 0.137207,-0.019 l 7.000006,-2 C 7.7184,19.939 7.79213,19.896 7.85219,19.8364 l 3.16201,-3.1338 5.7327,-5.6814 z"
         id="path187"
         fill="url(#gradient_1)"
         stroke="none"
         sodipodi:insensitive="true" />
    </g>
  </g>
</svg>
